solid ExportedfromBlender-2.79(sub0)
 facet normal -0.0515014 0.946596 0.318281
  outer loop
   vertex 0.0179214 0.00267005 0.0051956
   vertex 0.0182906 0.002736 0.0050592
   vertex 0.0179582 0.00279418 0.0048324
  endloop
 endfacet
 facet normal -0.428168 0.867556 0.25302
  outer loop
   vertex 0.0167089 0.00214934 0.0049292
   vertex 0.0179214 0.00267005 0.0051956
   vertex 0.0179582 0.00279418 0.0048324
  endloop
 endfacet
 facet normal -0.63025 0.582494 0.513308
  outer loop
   vertex 0.0179582 0.00279418 0.0048324
   vertex 0.0177411 0.00291946 0.0044236
   vertex 0.0171498 0.00241862 0.004266
  endloop
 endfacet
 facet normal -0.454239 0.88893 0.0589114
  outer loop
   vertex 0.0179582 0.00279418 0.0048324
   vertex 0.0171498 0.00241862 0.004266
   vertex 0.0167089 0.00214934 0.0049292
  endloop
 endfacet
 facet normal -0.434434 0.79482 0.423708
  outer loop
   vertex 0.0179214 0.00267005 0.0051956
   vertex 0.0167089 0.00214934 0.0049292
   vertex 0.017619 0.00214589 0.0058688
  endloop
 endfacet
 facet normal -0.0391893 0.796885 0.602859
  outer loop
   vertex 0.0179214 0.00267005 0.0051956
   vertex 0.017619 0.00214589 0.0058688
   vertex 0.018881 0.00235411 0.0056756
  endloop
 endfacet
 facet normal -0.954945 0.207386 -0.212302
  outer loop
   vertex 0.01595 0.00114509 0.0045928
   vertex 0.0161683 0.00137318 0.0038336
   vertex 0.0157884 -2.592e-06 0.0041984
  endloop
 endfacet
 facet normal -0.516193 0.40116 0.756713
  outer loop
   vertex 0.0173704 0.00114365 0.006342
   vertex 0.0164964 0.00132048 0.005652
   vertex 0.0166959 -9.504e-06 0.0064932
  endloop
 endfacet
 facet normal -0.987264 0.153432 -0.0420602
  outer loop
   vertex 0.01595 0.00114509 0.0045928
   vertex 0.0157884 -2.592e-06 0.0041984
   vertex 0.0157435 -9.504e-06 0.0052276
  endloop
 endfacet
 facet normal -0.139683 0.208625 0.967969
  outer loop
   vertex 0.0173704 0.00114365 0.006342
   vertex 0.0166959 -9.504e-06 0.0064932
   vertex 0.0180265 -5.76e-06 0.0066844
  endloop
 endfacet
 facet normal -0.740714 -0.61238 -0.276285
  outer loop
   vertex 0.0160698 -0.00122314 0.0038436
   vertex 0.0163356 -0.00136886 0.003454
   vertex 0.0168005 -0.00212314 0.0038796
  endloop
 endfacet
 facet normal -0.76114 -0.624863 -0.17382
  outer loop
   vertex 0.0168005 -0.00212314 0.0038796
   vertex 0.0167633 -0.00224122 0.0044668
   vertex 0.0160698 -0.00122314 0.0038436
  endloop
 endfacet
 facet normal -0.811687 -0.393475 0.431673
  outer loop
   vertex 0.016306 -0.00123984 0.005842
   vertex 0.0159725 -0.00143827 0.005034
   vertex 0.0168468 -0.00232042 0.005874
  endloop
 endfacet
 facet normal 0.00267891 -0.357254 0.934003
  outer loop
   vertex 0.0186895 -0.00115402 0.00667
   vertex 0.0172999 -0.00143424 0.0065668
   vertex 0.0183197 -0.00218477 0.0062768
  endloop
 endfacet
 facet normal -0.0426723 -0.889219 0.455488
  outer loop
   vertex 0.0183197 -0.00218477 0.0062768
   vertex 0.0168468 -0.00232042 0.005874
   vertex 0.0177806 -0.00268445 0.0052508
  endloop
 endfacet
 facet normal -0.172721 -0.55033 0.816887
  outer loop
   vertex 0.0183197 -0.00218477 0.0062768
   vertex 0.0172999 -0.00143424 0.0065668
   vertex 0.0168468 -0.00232042 0.005874
  endloop
 endfacet
 facet normal -0.600875 -0.278557 0.749236
  outer loop
   vertex 0.0172999 -0.00143424 0.0065668
   vertex 0.016306 -0.00123984 0.005842
   vertex 0.0168468 -0.00232042 0.005874
  endloop
 endfacet
 facet normal -0.380099 -0.924476 -0.0294719
  outer loop
   vertex 0.0168468 -0.00232042 0.005874
   vertex 0.0167633 -0.00224122 0.0044668
   vertex 0.0177806 -0.00268445 0.0052508
  endloop
 endfacet
 facet normal -0.711506 -0.702675 0.00268105
  outer loop
   vertex 0.0168468 -0.00232042 0.005874
   vertex 0.0159725 -0.00143827 0.005034
   vertex 0.0167633 -0.00224122 0.0044668
  endloop
 endfacet
 facet normal -0.760491 -0.625266 -0.1752
  outer loop
   vertex 0.0159725 -0.00143827 0.005034
   vertex 0.0160698 -0.00122314 0.0038436
   vertex 0.0167633 -0.00224122 0.0044668
  endloop
 endfacet
 facet normal -0.463417 -0.880045 0.103753
  outer loop
   vertex 0.0177806 -0.00268445 0.0052508
   vertex 0.0167633 -0.00224122 0.0044668
   vertex 0.0170885 -0.00244512 0.0041896
  endloop
 endfacet
 facet normal -0.692308 -0.409882 0.59389
  outer loop
   vertex 0.0170885 -0.00244512 0.0041896
   vertex 0.0175697 -0.00282154 0.0044908
   vertex 0.0179666 -0.00280973 0.0049616
  endloop
 endfacet
 facet normal -0.451241 -0.887422 0.0941481
  outer loop
   vertex 0.0170885 -0.00244512 0.0041896
   vertex 0.0179666 -0.00280973 0.0049616
   vertex 0.0177806 -0.00268445 0.0052508
  endloop
 endfacet
 facet normal -0.633143 -0.750122 -0.190908
  outer loop
   vertex 0.0167633 -0.00224122 0.0044668
   vertex 0.0168005 -0.00212314 0.0038796
   vertex 0.0170885 -0.00244512 0.0041896
  endloop
 endfacet
 facet normal 0.0343348 -0.116216 0.99263
  outer loop
   vertex 0.0194126 2.592e-06 0.0067804
   vertex 0.0186895 -0.00115402 0.00667
   vertex 0.019639 -0.00142013 0.006606
  endloop
 endfacet
 facet normal -0.115203 -0.138899 0.983583
  outer loop
   vertex 0.019639 -0.00142013 0.006606
   vertex 0.0199118 -0.000847584 0.0067188
   vertex 0.0194126 2.592e-06 0.0067804
  endloop
 endfacet
 facet normal -0.0640441 -0.049479 0.99672
  outer loop
   vertex 0.0180265 -5.76e-06 0.0066844
   vertex 0.0172999 -0.00143424 0.0065668
   vertex 0.0186895 -0.00115402 0.00667
  endloop
 endfacet
 facet normal -0.142206 -0.00915142 0.989795
  outer loop
   vertex 0.0180265 -5.76e-06 0.0066844
   vertex 0.0166959 -9.504e-06 0.0064932
   vertex 0.0172999 -0.00143424 0.0065668
  endloop
 endfacet
 facet normal -0.602544 -0.215732 0.768375
  outer loop
   vertex 0.0166959 -9.504e-06 0.0064932
   vertex 0.016306 -0.00123984 0.005842
   vertex 0.0172999 -0.00143424 0.0065668
  endloop
 endfacet
 facet normal -0.887797 -0.198532 0.415213
  outer loop
   vertex 0.0157435 -9.504e-06 0.0052276
   vertex 0.0159725 -0.00143827 0.005034
   vertex 0.016306 -0.00123984 0.005842
  endloop
 endfacet
 facet normal -0.987357 -0.152247 -0.0441172
  outer loop
   vertex 0.0157435 -9.504e-06 0.0052276
   vertex 0.0157884 -2.592e-06 0.0041984
   vertex 0.0159725 -0.00143827 0.005034
  endloop
 endfacet
 facet normal -0.974809 -0.191508 -0.114337
  outer loop
   vertex 0.0157884 -2.592e-06 0.0041984
   vertex 0.0160698 -0.00122314 0.0038436
   vertex 0.0159725 -0.00143827 0.005034
  endloop
 endfacet
 facet normal -0.0686838 -0.0521523 0.996274
  outer loop
   vertex 0.0194126 2.592e-06 0.0067804
   vertex 0.0180265 -5.76e-06 0.0066844
   vertex 0.0186895 -0.00115402 0.00667
  endloop
 endfacet
 facet normal -0.0692431 0.141697 0.987485
  outer loop
   vertex 0.0194126 2.592e-06 0.0067804
   vertex 0.0186376 0.00133546 0.0065348
   vertex 0.0180265 -5.76e-06 0.0066844
  endloop
 endfacet
 facet normal -0.175455 0.187746 0.96642
  outer loop
   vertex 0.0186376 0.00133546 0.0065348
   vertex 0.0173704 0.00114365 0.006342
   vertex 0.0180265 -5.76e-06 0.0066844
  endloop
 endfacet
 facet normal -0.797345 -0.0648892 0.600025
  outer loop
   vertex 0.0166959 -9.504e-06 0.0064932
   vertex 0.0157435 -9.504e-06 0.0052276
   vertex 0.016306 -0.00123984 0.005842
  endloop
 endfacet
 facet normal -0.773239 0.252014 0.581885
  outer loop
   vertex 0.0166959 -9.504e-06 0.0064932
   vertex 0.0164964 0.00132048 0.005652
   vertex 0.0157435 -9.504e-06 0.0052276
  endloop
 endfacet
 facet normal -0.851799 0.361034 0.379595
  outer loop
   vertex 0.0164964 0.00132048 0.005652
   vertex 0.01595 0.00114509 0.0045928
   vertex 0.0157435 -9.504e-06 0.0052276
  endloop
 endfacet
 facet normal -0.957063 -0.14824 -0.249108
  outer loop
   vertex 0.0160698 -0.00122314 0.0038436
   vertex 0.0157884 -2.592e-06 0.0041984
   vertex 0.0159935 0.000119232 0.003338
  endloop
 endfacet
 facet normal -0.990168 -0.13858 0.0190528
  outer loop
   vertex 0.0159935 0.000119232 0.003338
   vertex 0.0160284 -0.00017424 0.003014
   vertex 0.0161199 -0.000792864 0.0032728
  endloop
 endfacet
 facet normal -0.976355 -0.122577 -0.178062
  outer loop
   vertex 0.0159935 0.000119232 0.003338
   vertex 0.0161199 -0.000792864 0.0032728
   vertex 0.0160698 -0.00122314 0.0038436
  endloop
 endfacet
 facet normal -0.951853 0.201586 -0.230953
  outer loop
   vertex 0.0157884 -2.592e-06 0.0041984
   vertex 0.0161683 0.00137318 0.0038336
   vertex 0.0161879 0.000836064 0.003284
  endloop
 endfacet
 facet normal -0.950715 0.243352 -0.19215
  outer loop
   vertex 0.0161879 0.000836064 0.003284
   vertex 0.0159935 0.000119232 0.003338
   vertex 0.0157884 -2.592e-06 0.0041984
  endloop
 endfacet
 facet normal -0.804316 0.410371 -0.429735
  outer loop
   vertex 0.0161683 0.00137318 0.0038336
   vertex 0.0164143 0.00140371 0.0034024
   vertex 0.0161879 0.000836064 0.003284
  endloop
 endfacet
 facet normal 0.127491 0.621509 0.772964
  outer loop
   vertex 0.0193605 0.00223286 0.005694
   vertex 0.018881 0.00235411 0.0056756
   vertex 0.0186376 0.00133546 0.0065348
  endloop
 endfacet
 facet normal 0.169176 0.306751 0.936634
  outer loop
   vertex 0.0186376 0.00133546 0.0065348
   vertex 0.0196462 0.00136426 0.0063432
   vertex 0.0198682 0.00204912 0.0060788
  endloop
 endfacet
 facet normal -0.203449 0.751677 0.627368
  outer loop
   vertex 0.0186376 0.00133546 0.0065348
   vertex 0.0198682 0.00204912 0.0060788
   vertex 0.0193605 0.00223286 0.005694
  endloop
 endfacet
 facet normal 0.011097 0.643153 0.765657
  outer loop
   vertex 0.018881 0.00235411 0.0056756
   vertex 0.017619 0.00214589 0.0058688
   vertex 0.0186376 0.00133546 0.0065348
  endloop
 endfacet
 facet normal -0.201109 0.458559 0.865609
  outer loop
   vertex 0.017619 0.00214589 0.0058688
   vertex 0.0173704 0.00114365 0.006342
   vertex 0.0186376 0.00133546 0.0065348
  endloop
 endfacet
 facet normal -0.486964 0.468719 0.737
  outer loop
   vertex 0.017619 0.00214589 0.0058688
   vertex 0.0164964 0.00132048 0.005652
   vertex 0.0173704 0.00114365 0.006342
  endloop
 endfacet
 facet normal -0.561998 0.620773 0.546625
  outer loop
   vertex 0.017619 0.00214589 0.0058688
   vertex 0.0167089 0.00214934 0.0049292
   vertex 0.0164964 0.00132048 0.005652
  endloop
 endfacet
 facet normal -0.802723 0.495366 0.332036
  outer loop
   vertex 0.0167089 0.00214934 0.0049292
   vertex 0.01595 0.00114509 0.0045928
   vertex 0.0164964 0.00132048 0.005652
  endloop
 endfacet
 facet normal -0.790018 0.611542 -0.0434487
  outer loop
   vertex 0.0167089 0.00214934 0.0049292
   vertex 0.0161683 0.00137318 0.0038336
   vertex 0.01595 0.00114509 0.0045928
  endloop
 endfacet
 facet normal -0.672344 0.724261 -0.152967
  outer loop
   vertex 0.0167089 0.00214934 0.0049292
   vertex 0.0171498 0.00241862 0.004266
   vertex 0.0167161 0.00189101 0.0036744
  endloop
 endfacet
 facet normal -0.701759 0.696974 -0.147518
  outer loop
   vertex 0.0167161 0.00189101 0.0036744
   vertex 0.0161683 0.00137318 0.0038336
   vertex 0.0167089 0.00214934 0.0049292
  endloop
 endfacet
 facet normal 0.0648109 0.92775 -0.367532
  outer loop
   vertex 0.0228686 0.00713176 0.00032
   vertex 0.0258759 0.00601084 -0.0019792
   vertex 0.0221944 0.00601084 -0.0026284
  endloop
 endfacet
 facet normal 0.648506 0.671494 -0.358518
  outer loop
   vertex 0.0280218 0.00310378 -0.0035424
   vertex 0.0258759 0.00601084 -0.0019792
   vertex 0.0288933 0.00368554 -0.000876404
  endloop
 endfacet
 facet normal -0.359238 0.89666 -0.258746
  outer loop
   vertex 0.0228686 0.00713176 0.00032
   vertex 0.0221944 0.00601084 -0.0026284
   vertex 0.0196162 0.00600624 0.000935196
  endloop
 endfacet
 facet normal -0.283909 0.935462 0.210492
  outer loop
   vertex 0.0228686 0.00713176 0.00032
   vertex 0.0196162 0.00600624 0.000935196
   vertex 0.0217025 0.00600308 0.0037632
  endloop
 endfacet
 facet normal 0.214385 0.904345 0.369051
  outer loop
   vertex 0.0228686 0.00713176 0.00032
   vertex 0.0217025 0.00600308 0.0037632
   vertex 0.0258494 0.00601084 0.0013352
  endloop
 endfacet
 facet normal 0.892744 0.280071 -0.352942
  outer loop
   vertex 0.0280218 0.00310378 -0.0035424
   vertex 0.0288933 0.00368554 -0.000876404
   vertex 0.0296119 -9.4464e-05 -0.0020584
  endloop
 endfacet
 facet normal -0.120766 0.338003 -0.933365
  outer loop
   vertex 0.0213806 0.00310378 -0.0051636
   vertex 0.0247395 0.00361354 -0.0054136
   vertex 0.0228583 -0.000832896 -0.0067804
  endloop
 endfacet
 facet normal -0.878705 0.34033 -0.334743
  outer loop
   vertex 0.0169782 0.0031415 0.0009328
   vertex 0.0185109 0.00368554 -0.0025376
   vertex 0.0165732 -7.6896e-05 -0.0012764
  endloop
 endfacet
 facet normal -0.379773 0.645424 0.662722
  outer loop
   vertex 0.0198682 0.00204912 0.0060788
   vertex 0.0211236 0.00319853 0.0056788
   vertex 0.0183263 0.0037224 0.0035656
  endloop
 endfacet
 facet normal -0.409088 0.788647 0.459001
  outer loop
   vertex 0.0183263 0.0037224 0.0035656
   vertex 0.0177411 0.00291946 0.0044236
   vertex 0.0179582 0.00279418 0.0048324
  endloop
 endfacet
 facet normal -0.221346 0.816177 0.533723
  outer loop
   vertex 0.0183263 0.0037224 0.0035656
   vertex 0.0179582 0.00279418 0.0048324
   vertex 0.0182906 0.002736 0.0050592
  endloop
 endfacet
 facet normal -0.201108 0.753966 0.625373
  outer loop
   vertex 0.0193605 0.00223286 0.005694
   vertex 0.0198682 0.00204912 0.0060788
   vertex 0.0183263 0.0037224 0.0035656
  endloop
 endfacet
 facet normal 0.760377 0.644352 0.0814712
  outer loop
   vertex 0.0192344 0.0023953 0.0055868
   vertex 0.0193605 0.00223286 0.005694
   vertex 0.0183263 0.0037224 0.0035656
  endloop
 endfacet
 facet normal -0.033273 0.834354 0.550225
  outer loop
   vertex 0.0183263 0.0037224 0.0035656
   vertex 0.0182906 0.002736 0.0050592
   vertex 0.0190051 0.00250704 0.0054496
  endloop
 endfacet
 facet normal 0.110215 0.852821 0.51044
  outer loop
   vertex 0.0183263 0.0037224 0.0035656
   vertex 0.0190051 0.00250704 0.0054496
   vertex 0.0192344 0.0023953 0.0055868
  endloop
 endfacet
 facet normal 0.537638 0.326979 0.777194
  outer loop
   vertex 0.0280218 0.00314698 0.0027432
   vertex 0.0247041 0.00369158 0.0048092
   vertex 0.0270178 4.1184e-05 0.0047444
  endloop
 endfacet
 facet normal 0.780816 0.102204 -0.616345
  outer loop
   vertex 0.0280218 0.00310378 -0.0035424
   vertex 0.0296119 -9.4464e-05 -0.0020584
   vertex 0.0270121 -0.000832896 -0.0054744
  endloop
 endfacet
 facet normal -0.424423 0.203085 -0.882395
  outer loop
   vertex 0.0213806 0.00310378 -0.0051636
   vertex 0.0228583 -0.000832896 -0.0067804
   vertex 0.0191506 -0.000148896 -0.0048396
  endloop
 endfacet
 facet normal -0.985739 0.159941 -0.0523302
  outer loop
   vertex 0.0169782 0.0031415 0.0009328
   vertex 0.0165732 -7.6896e-05 -0.0012764
   vertex 0.0163912 -7.9488e-05 0.002144
  endloop
 endfacet
 facet normal 0.147469 0.177541 0.973002
  outer loop
   vertex 0.0230178 0.000173952 0.0059436
   vertex 0.0211236 0.00319853 0.0056788
   vertex 0.0198682 0.00204912 0.0060788
  endloop
 endfacet
 facet normal 0.1625 0.309076 0.937051
  outer loop
   vertex 0.0198682 0.00204912 0.0060788
   vertex 0.0196462 0.00136426 0.0063432
   vertex 0.019897 0.00068544 0.0065236
  endloop
 endfacet
 facet normal 0.383438 0.45379 0.804394
  outer loop
   vertex 0.019897 0.00068544 0.0065236
   vertex 0.019986 0.000160704 0.0067772
   vertex 0.0206058 -0.000259488 0.0067188
  endloop
 endfacet
 facet normal 0.234938 0.328656 0.914762
  outer loop
   vertex 0.0206058 -0.000259488 0.0067188
   vertex 0.0230178 0.000173952 0.0059436
   vertex 0.0198682 0.00204912 0.0060788
  endloop
 endfacet
 facet normal 0.153958 0.309338 0.938407
  outer loop
   vertex 0.0198682 0.00204912 0.0060788
   vertex 0.019897 0.00068544 0.0065236
   vertex 0.0206058 -0.000259488 0.0067188
  endloop
 endfacet
 facet normal 0.798044 0.122228 0.590073
  outer loop
   vertex 0.0280218 0.00314698 0.0027432
   vertex 0.0270178 4.1184e-05 0.0047444
   vertex 0.0296119 3.1968e-05 0.001238
  endloop
 endfacet
 facet normal 0.423909 -0.682424 -0.595482
  outer loop
   vertex 0.024798 -0.00416476 -0.0058164
   vertex 0.0277306 -0.00448648 -0.00336
   vertex 0.0239682 -0.0068662 -0.0033112
  endloop
 endfacet
 facet normal -0.558976 -0.665234 -0.494985
  outer loop
   vertex 0.0176527 -0.00334368 -0.0034016
   vertex 0.0209508 -0.00459532 -0.005444
   vertex 0.019762 -0.00623636 -0.001896
  endloop
 endfacet
 facet normal -0.700262 -0.629134 0.337377
  outer loop
   vertex 0.0178312 -0.00329558 0.0034924
   vertex 0.0167803 -0.00383414 0.000306798
   vertex 0.0197865 -0.00606068 0.0023944
  endloop
 endfacet
 facet normal 0.0754588 -0.657521 0.749648
  outer loop
   vertex 0.0248181 -0.0021263 0.005228
   vertex 0.0211977 -0.00299693 0.0048288
   vertex 0.0239794 -0.00497752 0.0028116
  endloop
 endfacet
 facet normal 0.710323 -0.663662 0.234507
  outer loop
   vertex 0.029253 -0.00223373 -0.000746
   vertex 0.0277306 -0.0026424 0.0027088
   vertex 0.026568 -0.00509384 -0.000707204
  endloop
 endfacet
 facet normal 0.51853 -0.752351 0.406319
  outer loop
   vertex 0.026568 -0.00509384 -0.000707204
   vertex 0.0239794 -0.00497752 0.0028116
   vertex 0.0228058 -0.00719768 0.0001984
  endloop
 endfacet
 facet normal 0.494425 -0.777115 0.389406
  outer loop
   vertex 0.026568 -0.00509384 -0.000707204
   vertex 0.0277306 -0.0026424 0.0027088
   vertex 0.0239794 -0.00497752 0.0028116
  endloop
 endfacet
 facet normal 0.424734 -0.654782 0.62519
  outer loop
   vertex 0.0277306 -0.0026424 0.0027088
   vertex 0.0248181 -0.0021263 0.005228
   vertex 0.0239794 -0.00497752 0.0028116
  endloop
 endfacet
 facet normal 0.142811 -0.785007 0.602801
  outer loop
   vertex 0.0239794 -0.00497752 0.0028116
   vertex 0.0197865 -0.00606068 0.0023944
   vertex 0.0228058 -0.00719768 0.0001984
  endloop
 endfacet
 facet normal 0.0910943 -0.644901 0.758818
  outer loop
   vertex 0.0239794 -0.00497752 0.0028116
   vertex 0.0211977 -0.00299693 0.0048288
   vertex 0.0197865 -0.00606068 0.0023944
  endloop
 endfacet
 facet normal -0.275858 -0.516866 0.810402
  outer loop
   vertex 0.0211977 -0.00299693 0.0048288
   vertex 0.0178312 -0.00329558 0.0034924
   vertex 0.0197865 -0.00606068 0.0023944
  endloop
 endfacet
 facet normal -0.326168 -0.944442 0.0405332
  outer loop
   vertex 0.0197865 -0.00606068 0.0023944
   vertex 0.019762 -0.00623636 -0.001896
   vertex 0.0228058 -0.00719768 0.0001984
  endloop
 endfacet
 facet normal -0.610769 -0.790996 0.0358739
  outer loop
   vertex 0.0197865 -0.00606068 0.0023944
   vertex 0.0167803 -0.00383414 0.000306798
   vertex 0.019762 -0.00623636 -0.001896
  endloop
 endfacet
 facet normal -0.713675 -0.65272 -0.254212
  outer loop
   vertex 0.0167803 -0.00383414 0.000306798
   vertex 0.0176527 -0.00334368 -0.0034016
   vertex 0.019762 -0.00623636 -0.001896
  endloop
 endfacet
 facet normal -0.19767 -0.967637 -0.156862
  outer loop
   vertex 0.019762 -0.00623636 -0.001896
   vertex 0.0239682 -0.0068662 -0.0033112
   vertex 0.0228058 -0.00719768 0.0001984
  endloop
 endfacet
 facet normal -0.285575 -0.829784 -0.479485
  outer loop
   vertex 0.019762 -0.00623636 -0.001896
   vertex 0.0209508 -0.00459532 -0.005444
   vertex 0.0239682 -0.0068662 -0.0033112
  endloop
 endfacet
 facet normal 0.00530015 -0.680838 -0.732415
  outer loop
   vertex 0.0209508 -0.00459532 -0.005444
   vertex 0.024798 -0.00416476 -0.0058164
   vertex 0.0239682 -0.0068662 -0.0033112
  endloop
 endfacet
 facet normal 0.501807 -0.860803 0.084899
  outer loop
   vertex 0.0239682 -0.0068662 -0.0033112
   vertex 0.026568 -0.00509384 -0.000707204
   vertex 0.0228058 -0.00719768 0.0001984
  endloop
 endfacet
 facet normal 0.53448 -0.844187 0.0409694
  outer loop
   vertex 0.0239682 -0.0068662 -0.0033112
   vertex 0.0277306 -0.00448648 -0.00336
   vertex 0.026568 -0.00509384 -0.000707204
  endloop
 endfacet
 facet normal 0.720597 -0.674299 0.161435
  outer loop
   vertex 0.0277306 -0.00448648 -0.00336
   vertex 0.029253 -0.00223373 -0.000746
   vertex 0.026568 -0.00509384 -0.000707204
  endloop
 endfacet
 facet normal 0.848376 -0.418393 0.324355
  outer loop
   vertex 0.0296119 3.1968e-05 0.001238
   vertex 0.0277306 -0.0026424 0.0027088
   vertex 0.029253 -0.00223373 -0.000746
  endloop
 endfacet
 facet normal 0.781785 -0.23152 0.578974
  outer loop
   vertex 0.0296119 3.1968e-05 0.001238
   vertex 0.0270178 4.1184e-05 0.0047444
   vertex 0.0277306 -0.0026424 0.0027088
  endloop
 endfacet
 facet normal 0.556808 -0.403037 0.72631
  outer loop
   vertex 0.0270178 4.1184e-05 0.0047444
   vertex 0.0248181 -0.0021263 0.005228
   vertex 0.0277306 -0.0026424 0.0027088
  endloop
 endfacet
 facet normal -0.0282849 -0.317052 0.947986
  outer loop
   vertex 0.0230178 0.000173952 0.0059436
   vertex 0.0211977 -0.00299693 0.0048288
   vertex 0.0248181 -0.0021263 0.005228
  endloop
 endfacet
 facet normal 0.345412 -0.481477 0.805525
  outer loop
   vertex 0.0211977 -0.00299693 0.0048288
   vertex 0.0230178 0.000173952 0.0059436
   vertex 0.0206058 -0.000259488 0.0067188
  endloop
 endfacet
 facet normal 0.256877 -0.30317 0.917661
  outer loop
   vertex 0.0206058 -0.000259488 0.0067188
   vertex 0.0199118 -0.000847584 0.0067188
   vertex 0.019639 -0.00142013 0.006606
  endloop
 endfacet
 facet normal 0.573114 -0.466358 0.673832
  outer loop
   vertex 0.019639 -0.00142013 0.006606
   vertex 0.0194835 -0.00181469 0.0064652
   vertex 0.0197358 -0.0021433 0.0060232
  endloop
 endfacet
 facet normal 0.378004 -0.469274 0.798057
  outer loop
   vertex 0.0197358 -0.0021433 0.0060232
   vertex 0.0211977 -0.00299693 0.0048288
   vertex 0.0206058 -0.000259488 0.0067188
  endloop
 endfacet
 facet normal 0.513433 -0.495774 0.700425
  outer loop
   vertex 0.0206058 -0.000259488 0.0067188
   vertex 0.019639 -0.00142013 0.006606
   vertex 0.0197358 -0.0021433 0.0060232
  endloop
 endfacet
 facet normal -0.902792 -0.260863 0.341931
  outer loop
   vertex 0.0163912 -7.9488e-05 0.002144
   vertex 0.0167803 -0.00383414 0.000306798
   vertex 0.0178312 -0.00329558 0.0034924
  endloop
 endfacet
 facet normal -0.995603 -0.0772197 -0.0530347
  outer loop
   vertex 0.0163912 -7.9488e-05 0.002144
   vertex 0.0165732 -7.6896e-05 -0.0012764
   vertex 0.0167803 -0.00383414 0.000306798
  endloop
 endfacet
 facet normal -0.956665 -0.156262 -0.245712
  outer loop
   vertex 0.0165732 -7.6896e-05 -0.0012764
   vertex 0.0176527 -0.00334368 -0.0034016
   vertex 0.0167803 -0.00383414 0.000306798
  endloop
 endfacet
 facet normal -0.553532 -0.111937 -0.825271
  outer loop
   vertex 0.0191506 -0.000148896 -0.0048396
   vertex 0.0209508 -0.00459532 -0.005444
   vertex 0.0176527 -0.00334368 -0.0034016
  endloop
 endfacet
 facet normal -0.47296 -0.0721303 -0.878126
  outer loop
   vertex 0.0191506 -0.000148896 -0.0048396
   vertex 0.0228583 -0.000832896 -0.0067804
   vertex 0.0209508 -0.00459532 -0.005444
  endloop
 endfacet
 facet normal -0.05743 -0.308177 -0.949594
  outer loop
   vertex 0.0228583 -0.000832896 -0.0067804
   vertex 0.024798 -0.00416476 -0.0058164
   vertex 0.0209508 -0.00459532 -0.005444
  endloop
 endfacet
 facet normal 0.588893 -0.314935 -0.744325
  outer loop
   vertex 0.0270121 -0.000832896 -0.0054744
   vertex 0.0277306 -0.00448648 -0.00336
   vertex 0.024798 -0.00416476 -0.0058164
  endloop
 endfacet
 facet normal 0.801394 -0.173634 -0.572379
  outer loop
   vertex 0.0270121 -0.000832896 -0.0054744
   vertex 0.0296119 -9.4464e-05 -0.0020584
   vertex 0.0277306 -0.00448648 -0.00336
  endloop
 endfacet
 facet normal 0.912874 -0.313527 -0.261461
  outer loop
   vertex 0.0296119 -9.4464e-05 -0.0020584
   vertex 0.029253 -0.00223373 -0.000746
   vertex 0.0277306 -0.00448648 -0.00336
  endloop
 endfacet
 facet normal 0.284077 -0.0750338 0.955861
  outer loop
   vertex 0.0270178 4.1184e-05 0.0047444
   vertex 0.0230178 0.000173952 0.0059436
   vertex 0.0248181 -0.0021263 0.005228
  endloop
 endfacet
 facet normal 0.28824 0.165957 0.943067
  outer loop
   vertex 0.0270178 4.1184e-05 0.0047444
   vertex 0.0247041 0.00369158 0.0048092
   vertex 0.0230178 0.000173952 0.0059436
  endloop
 endfacet
 facet normal 0.203175 0.210952 0.956148
  outer loop
   vertex 0.0247041 0.00369158 0.0048092
   vertex 0.0211236 0.00319853 0.0056788
   vertex 0.0230178 0.000173952 0.0059436
  endloop
 endfacet
 facet normal -0.873838 0.302399 0.38074
  outer loop
   vertex 0.0183263 0.0037224 0.0035656
   vertex 0.0169782 0.0031415 0.0009328
   vertex 0.0163912 -7.9488e-05 0.002144
  endloop
 endfacet
 facet normal -0.803867 0.114141 -0.583755
  outer loop
   vertex 0.0165732 -7.6896e-05 -0.0012764
   vertex 0.0191506 -0.000148896 -0.0048396
   vertex 0.0176527 -0.00334368 -0.0034016
  endloop
 endfacet
 facet normal -0.789481 0.213722 -0.575363
  outer loop
   vertex 0.0165732 -7.6896e-05 -0.0012764
   vertex 0.0185109 0.00368554 -0.0025376
   vertex 0.0191506 -0.000148896 -0.0048396
  endloop
 endfacet
 facet normal -0.597461 0.337139 -0.727583
  outer loop
   vertex 0.0185109 0.00368554 -0.0025376
   vertex 0.0213806 0.00310378 -0.0051636
   vertex 0.0191506 -0.000148896 -0.0048396
  endloop
 endfacet
 facet normal 0.298405 -0.100879 -0.949093
  outer loop
   vertex 0.0228583 -0.000832896 -0.0067804
   vertex 0.0270121 -0.000832896 -0.0054744
   vertex 0.024798 -0.00416476 -0.0058164
  endloop
 endfacet
 facet normal 0.29587 0.164089 -0.941029
  outer loop
   vertex 0.0228583 -0.000832896 -0.0067804
   vertex 0.0247395 0.00361354 -0.0054136
   vertex 0.0270121 -0.000832896 -0.0054744
  endloop
 endfacet
 facet normal 0.508144 0.270895 -0.817561
  outer loop
   vertex 0.0247395 0.00361354 -0.0054136
   vertex 0.0280218 0.00310378 -0.0035424
   vertex 0.0270121 -0.000832896 -0.0054744
  endloop
 endfacet
 facet normal 0.986817 -0.161724 0.00620284
  outer loop
   vertex 0.0296119 -9.4464e-05 -0.0020584
   vertex 0.0296119 3.1968e-05 0.001238
   vertex 0.029253 -0.00223373 -0.000746
  endloop
 endfacet
 facet normal 0.981963 0.188933 -0.00724643
  outer loop
   vertex 0.0296119 -9.4464e-05 -0.0020584
   vertex 0.0288933 0.00368554 -0.000876404
   vertex 0.0296119 3.1968e-05 0.001238
  endloop
 endfacet
 facet normal 0.904437 0.332534 0.267236
  outer loop
   vertex 0.0288933 0.00368554 -0.000876404
   vertex 0.0280218 0.00314698 0.0027432
   vertex 0.0296119 3.1968e-05 0.001238
  endloop
 endfacet
 facet normal 0.47526 0.65133 0.591521
  outer loop
   vertex 0.0258494 0.00601084 0.0013352
   vertex 0.0247041 0.00369158 0.0048092
   vertex 0.0280218 0.00314698 0.0027432
  endloop
 endfacet
 facet normal 0.348302 0.722526 0.597195
  outer loop
   vertex 0.0258494 0.00601084 0.0013352
   vertex 0.0217025 0.00600308 0.0037632
   vertex 0.0247041 0.00369158 0.0048092
  endloop
 endfacet
 facet normal 0.127297 0.541382 0.831084
  outer loop
   vertex 0.0217025 0.00600308 0.0037632
   vertex 0.0211236 0.00319853 0.0056788
   vertex 0.0247041 0.00369158 0.0048092
  endloop
 endfacet
 facet normal -0.425359 0.56868 0.70404
  outer loop
   vertex 0.0217025 0.00600308 0.0037632
   vertex 0.0183263 0.0037224 0.0035656
   vertex 0.0211236 0.00319853 0.0056788
  endloop
 endfacet
 facet normal -0.530561 0.75143 0.392246
  outer loop
   vertex 0.0217025 0.00600308 0.0037632
   vertex 0.0196162 0.00600624 0.000935196
   vertex 0.0183263 0.0037224 0.0035656
  endloop
 endfacet
 facet normal -0.717406 0.66046 0.221635
  outer loop
   vertex 0.0196162 0.00600624 0.000935196
   vertex 0.0169782 0.0031415 0.0009328
   vertex 0.0183263 0.0037224 0.0035656
  endloop
 endfacet
 facet normal -0.718542 0.66187 -0.213599
  outer loop
   vertex 0.0196162 0.00600624 0.000935196
   vertex 0.0185109 0.00368554 -0.0025376
   vertex 0.0169782 0.0031415 0.0009328
  endloop
 endfacet
 facet normal -0.5037 0.783723 -0.363407
  outer loop
   vertex 0.0196162 0.00600624 0.000935196
   vertex 0.0221944 0.00601084 -0.0026284
   vertex 0.0185109 0.00368554 -0.0025376
  endloop
 endfacet
 facet normal -0.430964 0.658605 -0.616855
  outer loop
   vertex 0.0221944 0.00601084 -0.0026284
   vertex 0.0213806 0.00310378 -0.0051636
   vertex 0.0185109 0.00368554 -0.0025376
  endloop
 endfacet
 facet normal 0.700011 0.662307 0.267083
  outer loop
   vertex 0.0288933 0.00368554 -0.000876404
   vertex 0.0258494 0.00601084 0.0013352
   vertex 0.0280218 0.00314698 0.0027432
  endloop
 endfacet
 facet normal 0.609284 0.792937 0.00486768
  outer loop
   vertex 0.0288933 0.00368554 -0.000876404
   vertex 0.0258759 0.00601084 -0.0019792
   vertex 0.0258494 0.00601084 0.0013352
  endloop
 endfacet
 facet normal 0.351144 0.936317 0.00280535
  outer loop
   vertex 0.0258759 0.00601084 -0.0019792
   vertex 0.0228686 0.00713176 0.00032
   vertex 0.0258494 0.00601084 0.0013352
  endloop
 endfacet
 facet normal -0.156003 0.67366 -0.722389
  outer loop
   vertex 0.0221944 0.00601084 -0.0026284
   vertex 0.0247395 0.00361354 -0.0054136
   vertex 0.0213806 0.00310378 -0.0051636
  endloop
 endfacet
 facet normal 0.104438 0.798956 -0.592251
  outer loop
   vertex 0.0221944 0.00601084 -0.0026284
   vertex 0.0258759 0.00601084 -0.0019792
   vertex 0.0247395 0.00361354 -0.0054136
  endloop
 endfacet
 facet normal 0.447848 0.656806 -0.606661
  outer loop
   vertex 0.0258759 0.00601084 -0.0019792
   vertex 0.0280218 0.00310378 -0.0035424
   vertex 0.0247395 0.00361354 -0.0054136
  endloop
 endfacet
 facet normal -0.0891796 -0.933593 0.34706
  outer loop
   vertex 0.0179666 -0.00280973 0.0049616
   vertex 0.0182713 -0.00274262 0.0052204
   vertex 0.0177806 -0.00268445 0.0052508
  endloop
 endfacet
 facet normal -0.897867 0.27393 -0.344669
  outer loop
   vertex 0.0163912 -7.9488e-05 0.002144
   vertex 0.0160284 -0.00017424 0.003014
   vertex 0.0159935 0.000119232 0.003338
  endloop
 endfacet
 facet normal -0.913398 0.222005 -0.3412
  outer loop
   vertex 0.0163912 -7.9488e-05 0.002144
   vertex 0.0159935 0.000119232 0.003338
   vertex 0.0161879 0.000836064 0.003284
  endloop
 endfacet
 facet normal -0.862721 0.488281 -0.131511
  outer loop
   vertex 0.0177411 0.00291946 0.0044236
   vertex 0.0183263 0.0037224 0.0035656
   vertex 0.0163912 -7.9488e-05 0.002144
  endloop
 endfacet
 facet normal -0.58314 0.769941 -0.259111
  outer loop
   vertex 0.0167161 0.00189101 0.0036744
   vertex 0.0171498 0.00241862 0.004266
   vertex 0.0177411 0.00291946 0.0044236
  endloop
 endfacet
 facet normal -0.782545 0.409815 -0.468695
  outer loop
   vertex 0.0163912 -7.9488e-05 0.002144
   vertex 0.0161879 0.000836064 0.003284
   vertex 0.0164143 0.00140371 0.0034024
  endloop
 endfacet
 facet normal 0.398717 0.246168 -0.883417
  outer loop
   vertex 0.0164143 0.00140371 0.0034024
   vertex 0.0167161 0.00189101 0.0036744
   vertex 0.0177411 0.00291946 0.0044236
  endloop
 endfacet
 facet normal -0.152882 0.640731 -0.75239
  outer loop
   vertex 0.0164143 0.00140371 0.0034024
   vertex 0.0177411 0.00291946 0.0044236
   vertex 0.0163912 -7.9488e-05 0.002144
  endloop
 endfacet
 facet normal -0.00601436 0.829721 0.558146
  outer loop
   vertex 0.0179214 0.00267005 0.0051956
   vertex 0.018881 0.00235411 0.0056756
   vertex 0.0190051 0.00250704 0.0054496
  endloop
 endfacet
 facet normal 0.0199209 0.877909 0.478412
  outer loop
   vertex 0.0190051 0.00250704 0.0054496
   vertex 0.0182906 0.002736 0.0050592
   vertex 0.0179214 0.00267005 0.0051956
  endloop
 endfacet
 facet normal 0.108961 -0.74081 0.662819
  outer loop
   vertex 0.0211977 -0.00299693 0.0048288
   vertex 0.0197358 -0.0021433 0.0060232
   vertex 0.018849 -0.00240077 0.0058812
  endloop
 endfacet
 facet normal 0.520667 -0.74315 -0.420278
  outer loop
   vertex 0.0182713 -0.00274262 0.0052204
   vertex 0.0179666 -0.00280973 0.0049616
   vertex 0.0175697 -0.00282154 0.0044908
  endloop
 endfacet
 facet normal -0.0139707 -0.883059 0.469054
  outer loop
   vertex 0.0211977 -0.00299693 0.0048288
   vertex 0.018849 -0.00240077 0.0058812
   vertex 0.0182713 -0.00274262 0.0052204
  endloop
 endfacet
 facet normal -0.0821014 -0.908457 0.409835
  outer loop
   vertex 0.0175697 -0.00282154 0.0044908
   vertex 0.0178312 -0.00329558 0.0034924
   vertex 0.0211977 -0.00299693 0.0048288
  endloop
 endfacet
 facet normal -0.0631373 -0.983911 0.167129
  outer loop
   vertex 0.0182713 -0.00274262 0.0052204
   vertex 0.0175697 -0.00282154 0.0044908
   vertex 0.0211977 -0.00299693 0.0048288
  endloop
 endfacet
 facet normal -0.694993 0.626937 -0.352044
  outer loop
   vertex 0.0167161 0.00189101 0.0036744
   vertex 0.0164143 0.00140371 0.0034024
   vertex 0.0161683 0.00137318 0.0038336
  endloop
 endfacet
 facet normal -0.670338 -0.722873 0.167636
  outer loop
   vertex 0.0178312 -0.00329558 0.0034924
   vertex 0.0175697 -0.00282154 0.0044908
   vertex 0.0170885 -0.00244512 0.0041896
  endloop
 endfacet
 facet normal -0.749545 -0.661894 0.00887135
  outer loop
   vertex 0.0178312 -0.00329558 0.0034924
   vertex 0.0170885 -0.00244512 0.0041896
   vertex 0.0168005 -0.00212314 0.0038796
  endloop
 endfacet
 facet normal -0.77523 -0.505772 -0.378434
  outer loop
   vertex 0.0160284 -0.00017424 0.003014
   vertex 0.0163912 -7.9488e-05 0.002144
   vertex 0.0178312 -0.00329558 0.0034924
  endloop
 endfacet
 facet normal -0.380975 -0.404258 -0.831525
  outer loop
   vertex 0.0163356 -0.00136886 0.003454
   vertex 0.0161199 -0.000792864 0.0032728
   vertex 0.0160284 -0.00017424 0.003014
  endloop
 endfacet
 facet normal -0.767407 -0.600188 -0.225525
  outer loop
   vertex 0.0178312 -0.00329558 0.0034924
   vertex 0.0168005 -0.00212314 0.0038796
   vertex 0.0163356 -0.00136886 0.003454
  endloop
 endfacet
 facet normal -0.508396 -0.409732 -0.757399
  outer loop
   vertex 0.0163356 -0.00136886 0.003454
   vertex 0.0160284 -0.00017424 0.003014
   vertex 0.0178312 -0.00329558 0.0034924
  endloop
 endfacet
 facet normal 0.124849 0.612242 0.780752
  outer loop
   vertex 0.0193605 0.00223286 0.005694
   vertex 0.0192344 0.0023953 0.0055868
   vertex 0.018881 0.00235411 0.0056756
  endloop
 endfacet
 facet normal 0.11973 -0.762804 0.635449
  outer loop
   vertex 0.018849 -0.00240077 0.0058812
   vertex 0.0197358 -0.0021433 0.0060232
   vertex 0.0194835 -0.00181469 0.0064652
  endloop
 endfacet
 facet normal 0.145894 -0.773064 0.617322
  outer loop
   vertex 0.0194835 -0.00181469 0.0064652
   vertex 0.0183197 -0.00218477 0.0062768
   vertex 0.018849 -0.00240077 0.0058812
  endloop
 endfacet
 facet normal 0.168806 0.310945 0.935317
  outer loop
   vertex 0.019897 0.00068544 0.0065236
   vertex 0.0196462 0.00136426 0.0063432
   vertex 0.0186376 0.00133546 0.0065348
  endloop
 endfacet
 facet normal 0.141977 0.258617 0.955489
  outer loop
   vertex 0.0186376 0.00133546 0.0065348
   vertex 0.0194126 2.592e-06 0.0067804
   vertex 0.019897 0.00068544 0.0065236
  endloop
 endfacet
 facet normal 0.0505251 0.81405 0.578594
  outer loop
   vertex 0.0192344 0.0023953 0.0055868
   vertex 0.0190051 0.00250704 0.0054496
   vertex 0.018881 0.00235411 0.0056756
  endloop
 endfacet
 facet normal -0.812944 -0.428508 -0.394339
  outer loop
   vertex 0.0161199 -0.000792864 0.0032728
   vertex 0.0163356 -0.00136886 0.003454
   vertex 0.0160698 -0.00122314 0.0038436
  endloop
 endfacet
 facet normal -0.110035 0.417304 0.902081
  outer loop
   vertex 0.019986 0.000160704 0.0067772
   vertex 0.019897 0.00068544 0.0065236
   vertex 0.0194126 2.592e-06 0.0067804
  endloop
 endfacet
 facet normal -0.0277464 -0.326245 0.944878
  outer loop
   vertex 0.0194835 -0.00181469 0.0064652
   vertex 0.019639 -0.00142013 0.006606
   vertex 0.0186895 -0.00115402 0.00667
  endloop
 endfacet
 facet normal -0.0429884 -0.342587 0.938502
  outer loop
   vertex 0.0186895 -0.00115402 0.00667
   vertex 0.0183197 -0.00218477 0.0062768
   vertex 0.0194835 -0.00181469 0.0064652
  endloop
 endfacet
 facet normal -0.0114552 -0.884002 0.467342
  outer loop
   vertex 0.0182713 -0.00274262 0.0052204
   vertex 0.018849 -0.00240077 0.0058812
   vertex 0.0183197 -0.00218477 0.0062768
  endloop
 endfacet
 facet normal -0.0753527 -0.880333 0.468332
  outer loop
   vertex 0.0183197 -0.00218477 0.0062768
   vertex 0.0177806 -0.00268445 0.0052508
   vertex 0.0182713 -0.00274262 0.0052204
  endloop
 endfacet
 facet normal 0.0521722 -0.0615744 0.996738
  outer loop
   vertex 0.0199118 -0.000847584 0.0067188
   vertex 0.0206058 -0.000259488 0.0067188
   vertex 0.019986 0.000160704 0.0067772
  endloop
 endfacet
 facet normal 0.0219546 -0.0594209 0.997992
  outer loop
   vertex 0.019986 0.000160704 0.0067772
   vertex 0.0194126 2.592e-06 0.0067804
   vertex 0.0199118 -0.000847584 0.0067188
  endloop
 endfacet
endsolid ExportedfromBlender-2.79(sub0)
